<svg id="Capa_1" enable-background="new 0 0 511.707 511.707" height="512" viewBox="0 0 511.707 511.707" width="512" xmlns="http://www.w3.org/2000/svg"><g><path d="m171.356 21.369c0-11.783-9.585-21.369-21.369-21.369h-128.618c-11.783 0-21.369 9.586-21.369 21.369v404.117c0 47.243 38.435 85.678 85.678 85.678s85.678-38.435 85.678-85.678zm-15 404.117c0 38.972-31.706 70.678-70.678 70.678s-70.678-31.706-70.678-70.678v-404.117c0-3.512 2.857-6.369 6.369-6.369h128.618c3.512 0 6.369 2.857 6.369 6.369z"/><path d="m85.678 385.739c-22.215 0-40.289 18.074-40.289 40.289s18.073 40.289 40.289 40.289 40.289-18.073 40.289-40.289-18.073-40.289-40.289-40.289zm0 65.578c-13.944 0-25.289-11.344-25.289-25.289s11.344-25.289 25.289-25.289 25.289 11.345 25.289 25.289-11.344 25.289-25.289 25.289z"/><path d="m117.883 57.374h-64.409c-8.125 0-14.735 6.61-14.735 14.735v65.552c0 4.142 3.358 7.5 7.5 7.5s7.5-3.358 7.5-7.5v-5.303h63.88v48.756h-63.88v-11.49c0-4.142-3.358-7.5-7.5-7.5s-7.5 3.358-7.5 7.5v134.269c0 8.125 6.61 14.735 14.735 14.735h64.409c8.125 0 14.735-6.61 14.735-14.735v-231.784c0-8.125-6.61-14.735-14.735-14.735zm-64.145 59.984v-44.984h63.88v44.984zm63.88 78.756v48.756h-63.88v-48.756zm-63.88 107.514v-43.758h63.88v43.758z"/><path d="m199.16 212.592 122.679-122.678c1.203-1.203 2.802-1.866 4.503-1.866 1.702 0 3.301.663 4.504 1.866l90.947 90.947c1.203 1.203 1.866 2.802 1.866 4.503s-.663 3.3-1.866 4.503l-68.483 68.483c-2.929 2.929-2.929 7.678 0 10.606 1.464 1.464 3.384 2.197 5.303 2.197s3.839-.732 5.303-2.197l68.483-68.482c4.036-4.036 6.259-9.402 6.259-15.11s-2.223-11.075-6.259-15.11l-90.946-90.947c-4.036-4.036-9.402-6.259-15.111-6.259-5.708 0-11.074 2.223-15.11 6.259l-122.679 122.679c-2.929 2.929-2.929 7.678 0 10.606 2.929 2.93 7.678 2.929 10.607 0z"/><path d="m193.814 435.953c1.919 0 3.839-.732 5.303-2.197l142.178-142.178c2.929-2.929 2.929-7.678 0-10.606-2.929-2.929-7.678-2.929-10.606 0l-142.178 142.178c-2.929 2.929-2.929 7.678 0 10.606 1.464 1.465 3.384 2.197 5.303 2.197z"/><path d="m236.362 320.515-37.202-37.202c-2.929-2.929-7.678-2.929-10.606 0-2.929 2.929-2.929 7.678 0 10.606l37.202 37.202-31.129 31.129c-2.929 2.929-2.929 7.678 0 10.606 1.464 1.464 3.384 2.197 5.303 2.197s3.839-.732 5.303-2.197l163.896-163.896c5.746-5.745 5.746-15.094 0-20.839l-45.544-45.544c-5.745-5.745-15.094-5.745-20.839 0l-114.193 114.194c-2.929 2.929-2.929 7.678 0 10.606 2.929 2.929 7.678 2.929 10.606 0l26.508-26.508 45.17 45.17zm76.803-167.143 45.17 45.17-31.809 31.809-45.17-45.17zm-76.891 76.891 34.476-34.476 45.17 45.17-34.476 34.476z"/><path d="m490.337 340.35h-173.493c-4.142 0-7.5 3.358-7.5 7.5s3.358 7.5 7.5 7.5h173.493c3.512 0 6.369 2.857 6.369 6.369v128.618c0 3.512-2.857 6.369-6.369 6.369h-330.541c-4.142 0-7.5 3.358-7.5 7.5s3.358 7.5 7.5 7.5h330.541c11.783 0 21.369-9.586 21.369-21.369v-128.618c.001-11.783-9.585-21.369-21.369-21.369z"/><path d="m311.863 457.968c-4.142 0-7.5 3.358-7.5 7.5s3.358 7.5 7.5 7.5h127.735c8.125 0 14.735-6.61 14.735-14.736v-64.409c0-8.125-6.61-14.735-14.735-14.735h-161.493c-4.142 0-7.5 3.358-7.5 7.5s3.358 7.5 7.5 7.5h37.487v63.88zm127.47 0h-44.984v-63.88h44.984zm-108.74-63.88h48.756v63.88h-48.756z"/><path d="m259.337 397.857c-4.142 0-7.5 3.358-7.5 7.5v52.611h-44.023c-4.142 0-7.5 3.358-7.5 7.5s3.358 7.5 7.5 7.5h72.086c4.142 0 7.5-3.358 7.5-7.5s-3.358-7.5-7.5-7.5h-13.063v-52.611c0-4.142-3.358-7.5-7.5-7.5z"/></g></svg>