<svg id="bold" enable-background="new 0 0 32 32" height="512" viewBox="0 0 32 32" width="512" xmlns="http://www.w3.org/2000/svg"><path d="m26 32h-20c-3.314 0-6-2.686-6-6v-20c0-3.314 2.686-6 6-6h20c3.314 0 6 2.686 6 6v20c0 3.314-2.686 6-6 6z" fill="#ffe6e2"/><path d="m20.667 24h-9.334c-1.103 0-2-.897-2-2v-12c0-1.103.897-2 2-2h9.334c1.103 0 2 .897 2 2v12c0 1.103-.897 2-2 2zm-9.334-14.667c-.368 0-.667.299-.667.667v12c0 .368.299.667.667.667h9.334c.368 0 .667-.299.667-.667v-12c0-.368-.299-.667-.667-.667z" fill="#fc573b"/><g fill="#fd907e"><path d="m13.5 21.333h-1c-.643 0-1.167-.523-1.167-1.167v-1.666c0-.643.523-1.167 1.167-1.167h1c.276 0 .5.224.5.5s-.224.5-.5.5h-1c-.092 0-.167.075-.167.167v1.667c0 .092.075.167.167.167h1c.276 0 .5.224.5.5s-.224.499-.5.499z"/><path d="m19.333 21.333c-.225 0-.422-.15-.482-.366l-.833-3c-.074-.266.082-.542.348-.616.265-.073.541.082.616.348l.352 1.266.352-1.266c.074-.266.351-.421.616-.348.266.074.422.35.348.616l-.833 3c-.062.217-.259.366-.484.366z"/><path d="m16.083 21.333h-.917c-.276 0-.5-.224-.5-.5s.224-.5.5-.5h.917c.138 0 .25-.112.25-.25s-.112-.25-.25-.25h-.167c-.689 0-1.25-.561-1.25-1.25s.561-1.25 1.25-1.25h.917c.276 0 .5.224.5.5s-.224.5-.5.5h-.917c-.138 0-.25.112-.25.25s.112.25.25.25h.167c.689 0 1.25.561 1.25 1.25s-.561 1.25-1.25 1.25z"/></g></svg>