<?xml version="1.0" encoding="utf-8"?>
<!-- Generator: Adobe Illustrator 23.1.0, SVG Export Plug-In . SVG Version: 6.00 Build 0)  -->
<svg version="1.1" id="Layer_1" xmlns="http://www.w3.org/2000/svg" xmlns:xlink="http://www.w3.org/1999/xlink" x="0px" y="0px"
	 viewBox="0 0 146.6 146.6" style="enable-background:new 0 0 146.6 146.6;" xml:space="preserve">
<style type="text/css">
	.st0{fill:#040404;}
	.st1{fill:#FEFEFE;}
	.st2{fill:#EC3B33;}
	.st3{fill:#E93933;}
	.st4{fill:#E83933;}
	.st5{fill:#E93A33;}
	.st6{fill:#050505;}
	.st7{fill:#050605;}
	.st8{fill:#FFFFFF;}
	.st9{fill:#FDFAFA;}
	.st10{fill:#FDFAF8;}
	.st11{fill:#FEFBFA;}
	.st12{fill:#F8F7F7;}
</style>
<path class="st0" d="M-1,73.2C-1.6,33.6,32.1-2.8,76.6-1c38.2,1.5,71.1,33.5,71.1,74.4c0,40.4-32.9,73.3-72.5,74.3
	C33.4,148.7-1.5,114.5-1,73.2z"/>
<path class="st1" d="M73.5,0c40.1,0,73.1,32.9,73.1,73.2c0,40.2-32.3,72.7-72.2,73.4C33.7,147.2,0.1,114.3,0,73.5
	C-0.1,33.4,32.4,0,73.5,0z"/>
<path class="st2" d="M94.8,54.3c0.4,1.6,0.8,2.9,1.1,4.3c0.4,1.5,0.9,1.8,2.4,1.5c2.9-0.6,5.8-1.2,8.6-1.9c0.3-0.1,0.6-0.2,0.9-0.1
	c-1,3.7-1.9,7.3-2.9,11c-0.5,2-0.5,2.1,1.4,3c1,0.5,1.9,0.9,2.8,1.4c0,0.3-0.2,0.4-0.4,0.6c-5.5,4.6-10.9,9.2-16.4,13.8
	c-1.2,1-1.5,2-1,3.5c0.5,1.5,0.9,2.9,1.3,4.5c-1.6,0.1-3-0.3-4.5-0.5c-4.1-0.5-8.1-1-12.2-1.5c-1.4-0.2-2,0.4-2,1.8
	c0.2,5.8,0.3,11.7,0.5,17.5c0,0.6-0.2,0.8-0.8,0.8c-2.2,0-2.2,0-2.1-2.1c0.2-5.4,0.5-10.9,0.7-16.3c0.1-1.3-0.5-1.9-1.8-1.7
	c-5.1,0.6-10.2,1.3-15.4,1.9c-1.5,0.2-1.5,0.2-1.1-1.2c0.3-1.2,0.7-2.3,1-3.5c0.4-1.2,0.1-2.2-0.9-3c-4.6-3.9-9.2-7.8-13.7-11.6
	c-1.1-0.9-2.2-1.9-3.4-2.9c1.2-0.6,2.4-1.2,3.5-1.7c1.1-0.5,1.4-0.9,1-2.1c-0.9-3.6-1.8-7.1-2.8-10.7c-0.1-0.3-0.1-0.6-0.2-1
	c1.5,0.3,3,0.6,4.4,1c1.8,0.4,3.5,0.8,5.3,1.2c1.2,0.3,1.8-0.1,2.2-1.3c0.4-1.4,0.8-2.8,1.2-4.4c1.1,1.2,2.1,2.4,3,3.5
	c1.6,1.9,3.3,3.8,4.9,5.7c0.2,0.3,0.5,0.5,0.7,0.7c1.1,0.7,2.1,0.2,2.1-1.1c0.1-1.7-0.4-3.3-0.7-5c-0.9-4.9-1.8-9.9-2.7-14.8
	c0-0.1,0-0.2,0-0.5c1.2,0.7,2.3,1.3,3.5,1.9c3.3,1.8,3.5,1.7,5.2-1.6c1.7-3.3,3.3-6.5,5-9.7c0.1-0.2,0.2-0.5,0.5-0.7
	c0.5,0.9,1,1.8,1.4,2.7c1.5,3,3,6,4.6,8.9c0.8,1.5,1.7,1.8,3.3,1c1.5-0.8,3.1-1.6,4.7-2.5c0.1,1.1-0.2,2-0.4,2.9
	C86,51.1,85,56.4,84.1,61.7C84,62.2,84,62.8,84,63.3c0.1,1.2,1,1.6,2,1c0.8-0.5,1.2-1.2,1.8-1.9C90.1,59.8,92.3,57.1,94.8,54.3z"/>
<path class="st3" d="M65.4,133.9c0.5-2.1,0.9-4.1,1.4-6.1c0.4-1.8,0.8-3.6,1.2-5.4c0.1-0.5,0.3-0.6,0.8-0.5c2.6,0.4,2.6,0.4,2.1,2.9
	c-1.1,4.8-2.2,9.6-3.2,14.4c-0.1,0.5-0.2,0.7-0.9,0.6c-2.6-0.6-2.6-0.5-3.5-3.1c-1.4-3.6-2.7-7.2-4.1-10.8c-0.1-0.2-0.2-0.3-0.3-0.7
	c-0.4,1.9-0.8,3.5-1.2,5.2c-0.5,2.1-0.9,4.1-1.4,6.2c0,0.1,0,0.3-0.1,0.4c-1,0.5-1.8-0.2-2.8-0.3c-0.6-0.1-0.4-0.6-0.3-0.9
	c0.9-4.1,1.9-8.3,2.8-12.4c0.3-1.2,0.6-2.3,0.8-3.5c0.1-0.6,0.4-0.6,1-0.6c1.8,0.2,2.8,1.1,3.4,2.9c1.2,3.8,2.8,7.4,4.2,11.2
	C65.2,133.5,65.3,133.6,65.4,133.9z"/>
<path class="st4" d="M114.8,119.8c0,1.7-0.6,3.2-1.6,4.5c-1.8,2.3-4.3,4-6.4,5.9c-0.5,0.4-0.6-0.1-0.9-0.3c-1.6-1.9-3.3-3.8-4.9-5.7
	c-1.9-2.2-3.8-4.5-5.7-6.7c-0.4-0.5-0.5-0.8,0.1-1.2c1.9-1.5,3.6-3.2,5.6-4.6c3.4-2.3,6.8-2.1,9.9,0.6
	C113.2,114.2,114.8,116.6,114.8,119.8z"/>
<path class="st4" d="M28.9,120.9c3.7-2.2,7.3-4.3,10.9-6.4c1.6-0.9,3.2-1.8,4.8-2.8c0.6-0.4,0.9-0.4,1.5,0.1
	c2.2,1.8,2.2,1.8,1.3,4.4c-1.7,4.8-3.4,9.6-5,14.4c-0.3,0.9-0.5,0.9-1.2,0.3c-1.9-1.6-1.9-1.6-1-3.9c0.7-1.8,0.7-1.8-0.8-3
	c-1.1-0.9-2.3-1.9-3.4-2.8c-0.4-0.3-0.7-0.3-1.1-0.1c-0.8,0.5-1.7,1-2.6,1.6c-0.5,0.3-0.8,0.3-1.2-0.1
	C30.4,122.1,29.7,121.5,28.9,120.9z"/>
<path class="st5" d="M131.5,95.9c-0.4,1-0.8,1.9-1.2,2.8c-0.2,0.4-0.5,0.3-0.8,0.3c-1-0.1-2-0.1-3-0.2c-0.5-0.1-0.8,0.1-1,0.6
	c-0.7,1.7-1.4,3.3-2.1,5c-0.3,0.6-0.1,1,0.3,1.4c0.7,0.6,1.4,1.3,2.2,2c0.3,0.3,0.4,0.5,0.2,0.9c-1,2.7-1,2.7-3.1,0.8
	c-3.8-3.5-7.5-7.1-11.3-10.6c-0.5-0.5-0.6-0.8-0.3-1.5c0.4-0.8,0.6-1.9,1.2-2.4c0.7-0.6,1.7-0.1,2.6,0c5.3,0.2,10.6,0.5,15.9,0.8
	C131.2,95.8,131.3,95.9,131.5,95.9z"/>
<path class="st3" d="M79.6,139.5c0.4-3.6,0.8-7.2,1.2-10.9c0.2-2.2,0.5-4.4,0.7-6.6c0.1-0.6,0.3-0.9,0.9-1c2.8-0.7,2.8-0.7,4.4,1.7
	c2.8,4.2,5.6,8.4,8.5,12.6c0.5,0.7,0.5,1-0.4,1.2c-2.4,0.5-2.3,0.6-3.7-1.4c-1.1-1.7-1.1-1.7-3-1.2c-1.4,0.3-2.8,0.7-4.2,1
	c-0.5,0.1-0.7,0.3-0.8,0.9c0,1-0.2,1.9-0.2,2.9c0,0.5-0.2,0.8-0.7,0.9c-0.7,0.2-1.4,0.4-2.1,0.5C79.6,140.1,79.6,140.1,79.6,139.5z"
	/>
<path class="st3" d="M27.8,91.9c4.5,0,7.6,3.2,8.4,7.6c0.5,2.7-0.3,5-2.5,6.8c-0.5,0.5-0.8,0.4-1-0.3c-0.1-0.3-0.3-0.7-0.5-1
	c-0.5-0.9-0.6-1.6,0.2-2.5c1.2-1.3,0.8-2.9,0.2-4.4c-0.8-1.7-2.1-2.8-4-2.9c-2.6-0.1-4.8,0.8-6.6,2.7c-2.1,2.1-1.6,5.9,0.9,7.6
	c0.5,0.3,1,0.6,1.6,0.6c1-0.2,1.4,0.4,1.7,1.2c0,0.1,0.1,0.2,0.2,0.4c0.9,1.9,0.8,2-1.4,1.9c-1.7-0.1-3.1-0.6-4.2-1.8
	c-4.4-4.5-4.7-12,3.4-15.1C25.4,92.2,26.6,91.9,27.8,91.9z"/>
<path class="st0" d="M26.7,42c-1-1.8-1.7-3.3-2.7-4.8c-0.6-0.9-0.6-1.5,0.1-2.3c0.2-0.2,0.3-0.4,0.5-0.7c2.6,1.8,5.1,3.5,7.6,5.3
	c0.7,0.5-0.2,0.8-0.3,1.2c-0.1,0.4-0.4,0.5-0.8,0.2c-1.6-1.1-3.2-2.2-4.9-3.2c0.8,1.4,1.5,2.9,2.3,4.3c0.2,0.4,0.4,0.8,0,1.2
	c-0.3,0.4-0.6,0.6-1.1,0.5c-1.6-0.3-3.2-0.4-4.9-0.5c1.5,1.1,3,2.2,4.6,3.2c0.7,0.5,0.4,0.8,0.1,1.2c-0.3,0.5-0.5,0.7-1.1,0.3
	c-2.2-1.6-4.5-3.2-6.7-4.7c-0.6-0.4-0.4-0.6-0.2-1.1c0.5-0.9,1.1-1.1,2.1-0.9C23,41.5,24.8,41.7,26.7,42z"/>
<path class="st0" d="M121.4,45.2c1.8-1.2,3.5-2.3,5.1-3.4c0.7-0.5,0.8,0.1,1.1,0.4c0.3,0.4,0.6,0.7-0.1,1.1c-2.2,1.4-4.4,3-6.7,4.4
	c-0.3,0.2-0.7,0.7-0.9,0.4c-0.4-0.5-1.1-0.9-0.7-1.8c0.9-2.1,1.7-4.2,2.6-6.3c0.1-0.2,0.1-0.4,0.3-0.7c-1.7,1.2-3.4,2.2-4.9,3.3
	c-0.6,0.4-0.9,0.2-1.2-0.3c-0.3-0.5-0.5-0.8,0.2-1.2c2.2-1.4,4.3-2.9,6.5-4.3c0.3-0.2,0.7-0.8,1.1-0.4c0.4,0.5,1,1,0.6,1.9
	c-0.9,2-1.7,4-2.6,6.1C121.6,44.6,121.5,44.8,121.4,45.2z"/>
<path class="st0" d="M60.5,13c2.3-0.1,4,1.4,4.5,3.8c0.6,3.1-0.6,4.9-3.6,5.8c-1,0.3-1.9,0.5-2.9,0.7c-0.4,0.1-0.6-0.1-0.7-0.5
	c-0.6-2.8-1.2-5.5-1.8-8.3c-0.1-0.4-0.1-0.7,0.4-0.8C57.8,13.5,59.1,13,60.5,13z"/>
<path class="st6" d="M48,27.4c-0.3,0.2-0.5,0.3-0.6,0.4c-0.7,0.6-1.3,0.6-1.9-0.1c-0.6-0.7-1.3-0.8-2-0.1c-0.2,0.2-0.4,0.3-0.7,0.4
	c-1.4,0.9-1.5,0.9-1.1,2.6c0.3,1.2-0.9,1.1-1.4,1.7c-0.8-3.3-1.5-6.4-2.2-9.6c-0.1-0.5,0-0.7,0.4-0.9c0.5-0.2,0.8-1,1.5-0.5
	C42.7,23.5,45.3,25.4,48,27.4z"/>
<path class="st0" d="M79.7,15.5C79.5,16,80,16,80.5,16.1c0.9,0.1,1.9,0.3,2.8,0.3c0.5,0,0.6,0.3,0.5,0.7c-0.1,0.3,0,0.8-0.7,0.6
	c-0.9-0.2-1.9-0.2-2.9-0.4c-0.6-0.1-0.7,0.1-0.8,0.6c-0.3,2.1-0.3,2.1,1.8,2.4c0.6,0.1,1.1,0.2,1.7,0.2c0.7,0,0.8,0.4,0.7,1
	c-0.1,0.7-0.5,0.5-0.9,0.4c-1.6-0.2-3.2-0.4-4.9-0.6c-0.4,0-0.6-0.1-0.6-0.6c0.4-2.8,0.8-5.6,1.1-8.5c0-0.4,0-0.7,0.5-0.6
	c1.8,0.3,3.5,0.5,5.3,0.7c0.9,0.1,0.4,0.6,0.4,1c0.1,0.7-0.4,0.5-0.7,0.4c-1.1-0.2-2.3-0.3-3.4-0.5c-0.3,0-0.5,0-0.5,0.4
	C79.9,14.2,79.8,14.8,79.7,15.5z"/>
<path class="st7" d="M107.1,33.3c-0.4-0.3-0.9-0.6-1.2-1c-0.2-0.3,0.2-0.5,0.4-0.7c1.7-2.1,3.4-4.2,5-6.4c0.6-0.8,0.9-0.2,1.3,0.1
	c0.6,0.4,0.5,0.6,0.1,1.1c-1.7,2.1-3.4,4.2-5.1,6.4C107.6,32.9,107.4,33.1,107.1,33.3z"/>
<path class="st8" d="M111.6,119.5c0,2.2-0.9,3.4-2.1,4.5c-0.8,0.7-1.6,1.8-2.4,1.8c-0.8,0.1-1.4-1.3-2-2.1c-1.8-2.1-3.6-4.2-5.4-6.3
	c-0.5-0.5-0.5-0.8,0.1-1.3c1-0.7,1.9-1.6,2.9-2.3c1.7-1,3.4-1,5,0.2C109.8,115.6,111.4,117.4,111.6,119.5z"/>
<path class="st9" d="M44.4,115.4c-0.9,2.5-1.7,4.7-2.5,6.9c-0.1,0.4-0.3,0.4-0.6,0.2c-1.1-0.9-2.1-1.8-3.2-2.6
	c-0.3-0.2-0.3-0.4,0-0.6C40.1,118,42.1,116.7,44.4,115.4z"/>
<path class="st10" d="M115.3,98.1c2.6,0.2,4.9,0.3,7.2,0.5c0.6,0,0.5,0.3,0.4,0.7c-0.5,1.2-1,2.3-1.5,3.5c-0.1,0.2-0.2,0.7-0.6,0.3
	C119,101.4,117.2,99.8,115.3,98.1z"/>
<path class="st11" d="M88.6,131c-1.6,0.4-3,0.7-4.5,1.1c-0.3,0.1-0.5,0-0.5-0.4c0.2-2.3,0.4-4.6,0.7-7.2
	C85.8,126.8,87.2,128.8,88.6,131z"/>
<path class="st1" d="M60.3,14.5c1.1,0.1,1.9,0.4,2.4,1.3c0.4,0.8,0.7,1.7,0.7,2.6c0,1.4-0.8,2.3-2.4,2.7c-1.6,0.4-1.6,0.4-2-1.2
	c-0.3-1.4-0.6-2.9-1-4.3c-0.1-0.5-0.1-0.8,0.6-0.9C59.2,14.8,59.9,14.6,60.3,14.5z"/>
<path class="st12" d="M43.3,26.1c-0.1,0.1-0.1,0.1-0.1,0.2c-2.1,1.6-2.1,1.6-2.7-0.9c-0.1-0.5-0.3-1-0.4-1.7
	C41.2,24.5,42.2,25.3,43.3,26.1z"/>
</svg>
